# xmcd
#
# Track frame offsets: 
#        150
#        9943
#        19654
#        31297
#        44234
#        54004
#        65237
#        76542
#        85776
#        96203
#
# Disc length: 1419 seconds
#
# Revision: 1
# Processed by: cddbd v1.5.2PL0 Copyright (c) Steve Scherf et al.
# Submitted via: ExactAudioCopy v0.95b4
#
DISCID=6d05890a
DTITLE=Jim and Jesse - Legendary Bluegrass Duets
DYEAR=1900
DGENRE=Bluegrass
TTITLE0=Pardon Me
TTITLE1=I'll Love Nobody but You
TTITLE2=Dixie Hoedown (Inst)
TTITLE3=Have You Lost Your Love for Me
TTITLE4=Let the Spirit Descend
TTITLE5=I'm Changing the Words to My Love Song
TTITLE6=Hard Hearted
TTITLE7=Border Ride (Inst)
TTITLE8=Let Me Whisper
TTITLE9=They Can't Love Jesus More Than Me
EXTD=
EXTT0=
EXTT1=
EXTT2=
EXTT3=
EXTT4=
EXTT5=
EXTT6=
EXTT7=
EXTT8=
EXTT9=
PLAYORDER=
